<?xml version="1.0" encoding="utf-8"?>
<!-- Generator: Adobe Illustrator 26.1.0, SVG Export Plug-In . SVG Version: 6.00 Build 0)  -->
<svg version="1.1" id="Laag_1" xmlns="http://www.w3.org/2000/svg" xmlns:xlink="http://www.w3.org/1999/xlink" x="0px" y="0px"
     viewBox="0 0 120.4 121" style="enable-background:new 0 0 120.4 121;" xml:space="preserve">
<style type="text/css">
    .st0{fill:#364069;}
    .st1{fill:#1EB0E0;}
</style>
<g>
    <g>
        <g>
            <path class="st0" d="M24.9,23.3c-0.1-0.1-0.3-0.2-0.5-0.2h-0.9c-0.5,0-0.9-0.3-1.1-0.7l-0.5-1.2c-0.1-0.2-0.1-0.5,0.2-0.7
                c0.1-0.1,0.2-0.1,0.3-0.1h2.9c0.5,0,0.9,0.2,1.3,0.5l1.8,1.8c0.3,0.3,0.3,0.8,0,1.1c0,0,0,0,0,0l-0.9,0.9c-0.3,0.3-0.8,0.3-1.1,0
                c0,0,0,0,0,0L24.9,23.3z M18.4,38.4c-0.5,0-0.9-0.2-1.3-0.5l-2.3-2.2c-0.3-0.3-0.5-0.8-0.5-1.3v-10c0-0.5,0.2-0.9,0.5-1.3
                l2.3-2.3c0.3-0.3,0.8-0.5,1.3-0.5h0.5c0.4,0,0.7,0.2,0.9,0.6l0.6,1.4c0.1,0.2,0.1,0.5-0.2,0.7c-0.1,0.1-0.2,0.1-0.3,0.1h-0.7
                c-0.2,0-0.4,0.1-0.5,0.2l-1.2,1.2c-0.1,0.1-0.2,0.3-0.2,0.5v8.7c0,0.2,0.1,0.4,0.2,0.5l1.2,1.2c0.1,0.1,0.3,0.2,0.5,0.2h1
                c0.5,0,0.9,0.3,1.1,0.7l0.5,1.2c0.1,0.2,0.1,0.5-0.2,0.7c-0.1,0.1-0.2,0.1-0.3,0.1L18.4,38.4z M24.7,38.4c-0.4,0-0.7-0.2-0.9-0.6
                l-0.6-1.4c-0.1-0.2-0.1-0.5,0.2-0.7c0.1-0.1,0.2-0.1,0.3-0.1h0.5c0.2,0,0.4-0.1,0.5-0.2l0,0l1.4-1.4l0,0c0.1-0.1,0.2-0.3,0.2-0.5
                v-2.2c0-0.4-0.4-0.8-0.8-0.8h-2c-0.4,0-0.8-0.4-0.8-0.8v0v-1c0-0.4,0.3-0.8,0.8-0.8c0,0,0,0,0,0h4.7c0.4,0,0.8,0.4,0.8,0.8v5.6
                c0,0.5-0.1,1-0.5,1.3L26.2,38c-0.3,0.3-0.8,0.5-1.3,0.5L24.7,38.4z"/>
            <path class="st0" d="M36.8,38.4c-0.2,0-0.4,0-0.6-0.1c-0.3-0.1-0.5-0.2-0.7-0.5l-2.2-2.2c-0.3-0.3-0.5-0.8-0.5-1.3v-10
                c0-0.5,0.2-0.9,0.5-1.3l2.2-2.3c0.3-0.3,0.8-0.5,1.3-0.5h0.5c0.4,0,0.7,0.2,0.9,0.6l0.6,1.4c0.1,0.2,0.1,0.5-0.2,0.7
                c-0.1,0.1-0.2,0.1-0.3,0.1h-0.7c-0.2,0-0.4,0.1-0.5,0.2l-1.2,1.2c-0.1,0.1-0.2,0.3-0.2,0.5v8.7c0,0.2,0.1,0.4,0.2,0.5l1.2,1.2
                c0.1,0.1,0.3,0.2,0.5,0.2h0.9c0.5,0,0.9,0.3,1.1,0.7l0.5,1.2c0.1,0.2,0.1,0.5-0.2,0.7c-0.1,0.1-0.2,0.1-0.3,0.1L36.8,38.4z
                 M43.2,38.4c-0.4,0-0.7-0.2-0.9-0.6l-0.6-1.4c-0.1-0.2-0.1-0.5,0.2-0.7c0.1-0.1,0.2-0.1,0.3-0.1h0.7c0.2,0,0.4-0.1,0.5-0.2
                l1.2-1.2c0.1-0.1,0.2-0.3,0.2-0.5v-8.7c0-0.2-0.1-0.4-0.2-0.5l0,0l-1.2-1.2c-0.1-0.1-0.3-0.2-0.5-0.2h-0.9
                c-0.5,0-0.9-0.3-1.1-0.7l-0.5-1.2c-0.1-0.2-0.1-0.5,0.2-0.7c0.1-0.1,0.2-0.1,0.3-0.1h2.9c0.5,0,0.9,0.2,1.3,0.5l2.3,2.3
                c0.3,0.3,0.5,0.8,0.5,1.3v9.9c0,0.5-0.2,1-0.5,1.3l-2.3,2.2c-0.2,0.2-0.4,0.4-0.7,0.5c-0.2,0-0.4,0.1-0.6,0.1H43.2z"/>
            <path class="st1" d="M15.1,63.1c-0.3,0-0.6-0.3-0.6-0.6l0,0V45.7c0-0.3,0.3-0.6,0.6-0.6h0h0.4c0.4,0,0.7,0.2,0.9,0.6l0.7,1.6
                c0.2,0.5,0.3,1,0.3,1.5v10.6c0,0.5-0.1,1-0.3,1.5l-0.7,1.6c-0.2,0.3-0.5,0.6-0.9,0.6H15.1z M19,63.1c-0.3,0-0.5-0.2-0.5-0.4
                c0-0.1,0-0.2,0.1-0.3l0.5-1.2c0.2-0.4,0.6-0.7,1.1-0.7h3.6c0.2,0,0.4-0.1,0.5-0.2l1.2-1.2c0.1-0.1,0.2-0.3,0.2-0.5v-8.7
                c0-0.2-0.1-0.4-0.2-0.5l0,0L24.2,48c-0.1-0.1-0.3-0.2-0.5-0.2h-3.5c-0.5,0-0.9-0.3-1.1-0.7l-0.5-1.2c-0.1-0.2-0.1-0.5,0.2-0.7
                c0.1-0.1,0.2-0.1,0.3-0.1h5.6c0.5,0,0.9,0.2,1.3,0.5l2.2,2.2c0.3,0.3,0.5,0.8,0.5,1.3v9.9c0,0.5-0.2,0.9-0.5,1.3l-2.2,2.3
                c-0.3,0.3-0.8,0.5-1.3,0.5L19,63.1z"/>
            <path class="st1" d="M32.7,63.1c-0.4,0-0.8-0.3-0.8-0.8c0,0,0,0,0,0V61c0-0.4,0.1-0.8,0.2-1.1l0,0l5-11.7c0.2-0.4,0.4-0.4,0.6,0
                l0.9,2c0.2,0.5,0.2,1,0,1.5l-1.5,3.7c-0.1,0.2,0,0.5,0.2,0.7c0.1,0.1,0.2,0.1,0.3,0.1h2.6c0.5,0,0.9,0.3,1.1,0.7l0.5,1.3
                c0.1,0.2,0,0.4-0.1,0.5c-0.1,0-0.1,0.1-0.2,0h-4.9c-0.5,0-0.9,0.3-1.1,0.7L35,60.3c0,0.1-0.1,0.4-0.2,0.5c0,0.1-0.1,0.3,0,0.4
                v1.2c0,0.4-0.4,0.8-0.8,0.8l0,0L32.7,63.1z M45.8,63.1c-0.4,0-0.8-0.4-0.8-0.8l0,0v-1.1c0-0.1,0-0.3,0-0.4c0-0.1-0.1-0.2-0.1-0.3
                l0,0l-6.1-14.6c-0.1-0.2-0.1-0.5,0.2-0.7c0.1-0.1,0.2-0.1,0.3-0.1h1.5c0.5,0,0.9,0.3,1.1,0.7l5.9,13.9l0,0
                c0.2,0.4,0.2,0.8,0.2,1.2v1.4c0,0.4-0.4,0.8-0.8,0.8l0,0H45.8z"/>
            <path class="st0" d="M33.6,87.9c-0.4,0-0.8-0.4-0.8-0.8c0,0,0,0,0,0V70.5c0-0.3,0.3-0.6,0.6-0.6h0.4c0.4,0,0.7,0.2,0.9,0.6
                l0.7,1.6c0.2,0.5,0.3,1,0.3,1.5v13.6c0,0.4-0.3,0.8-0.8,0.8c0,0,0,0,0,0L33.6,87.9z M44.5,87.9c-0.4,0-0.8-0.4-0.8-0.8v-4.3
                c0-0.2-0.1-0.4-0.2-0.5l0,0l-1.4-1.4c-0.1-0.1-0.3-0.2-0.5-0.2h-3.2c-0.4,0-0.8-0.4-0.8-0.8v-1.1c0-0.4,0.4-0.8,0.8-0.8h3.3
                c0.2,0,0.4-0.1,0.5-0.2l1.3-1.3c0.1-0.1,0.2-0.3,0.2-0.5V74c0-0.2-0.1-0.4-0.2-0.5l-0.8-0.8c-0.1-0.1-0.3-0.2-0.5-0.2h-3.7
                c-0.5,0-0.9-0.3-1.1-0.7l-0.5-1.2c-0.1-0.2-0.1-0.5,0.2-0.7c0.1-0.1,0.2-0.1,0.3-0.1H43c0.5,0,0.9,0.2,1.2,0.5l1.8,1.8
                c0.3,0.3,0.5,0.8,0.5,1.3v3.1c0,0.5-0.2,0.9-0.5,1.2L44.7,79c-0.2,0.2-0.2,0.5,0,0.7l1.3,1.4c0.3,0.3,0.5,0.8,0.5,1.3v4.7
                c0,0.4-0.4,0.8-0.8,0.8H44.5z"/>
            <path class="st0" d="M51.4,69.8h1.4c0.4,0,0.8,0.4,0.8,0.8v16.4c0,0.4-0.4,0.8-0.8,0.8h-1.4c-0.4,0-0.8-0.4-0.8-0.8V70.6
                C50.7,70.2,51,69.8,51.4,69.8z"/>
            <path class="st0" d="M66,82.4c-0.2-0.5-0.2-1,0-1.5l3.3-8.3c0-0.1,0.1-0.2,0.1-0.3c0-0.1,0-0.3,0-0.4v-1.2c0-0.4,0.4-0.8,0.8-0.8
                l0,0h1.3c0.4,0,0.8,0.4,0.8,0.8l0,0v1.5c0,0.4-0.1,0.8-0.2,1.2l0,0l-4.5,11.4c-0.2,0.5-0.5,0.5-0.7,0L66,82.4z M63.8,87.9
                c-0.5,0-0.9-0.3-1.1-0.7l-5.5-13.8c-0.1-0.4-0.2-0.8-0.2-1.2v-1.5c0-0.4,0.4-0.8,0.8-0.8h1.4c0.4,0,0.8,0.4,0.8,0.8v1.2
                c0,0.1,0,0.3,0,0.4c0,0.1,0.1,0.2,0.1,0.3l5.8,14.5c0.1,0.2,0,0.5-0.2,0.7c-0.1,0.1-0.2,0.1-0.3,0.1L63.8,87.9z"/>
            <path class="st0" d="M81.3,72.6c-0.5,0-0.9-0.3-1.1-0.7l-0.5-1.3c-0.1-0.2-0.1-0.5,0.2-0.7c0.1-0.1,0.2-0.1,0.3-0.1h7.3
                c0.4,0,0.8,0.4,0.8,0.8v1.2c0,0.4-0.4,0.8-0.8,0.8H81.3z M81.2,80.2c-0.4,0-0.8-0.4-0.8-0.8c0,0,0,0,0,0v-1.2
                c0-0.4,0.4-0.8,0.8-0.8l0,0h6.2c0.4,0,0.8,0.4,0.8,0.8v1.2c0,0.4-0.4,0.8-0.8,0.8H81.2z M76.2,87.9c-0.4,0-0.6-0.3-0.6-0.6V70.5
                c0-0.3,0.3-0.6,0.6-0.6h0.4c0.4,0,0.7,0.2,0.9,0.6l0.7,1.7c0.2,0.5,0.3,1,0.3,1.5v10.5c0,0.5-0.1,1.1-0.3,1.6l-0.7,1.6
                c-0.2,0.3-0.5,0.6-0.9,0.6L76.2,87.9z M80.1,87.9c-0.3,0-0.5-0.2-0.6-0.4c0-0.1,0-0.2,0.1-0.3l0.5-1.3c0.2-0.4,0.6-0.7,1.1-0.7
                h6.1c0.4,0,0.8,0.4,0.8,0.8v1.2c0,0.4-0.4,0.8-0.8,0.8H80.1z"/>
            <path class="st0" d="M103.8,79.1c-0.3-0.4-0.5-0.9-0.5-1.4v-7.1c0-0.4,0.4-0.8,0.8-0.8l0,0h1.2c0.4,0,0.8,0.4,0.8,0.8V81
                c0,0.5-0.3,0.6-0.6,0.2L103.8,79.1z M93.2,87.9c-0.4,0-0.8-0.4-0.8-0.8V76.7c0-0.5,0.3-0.6,0.6-0.2l1.7,2.1
                c0.3,0.4,0.5,0.9,0.5,1.4v7.1c0,0.4-0.3,0.8-0.8,0.8c0,0,0,0,0,0L93.2,87.9z M103.9,87.9c-0.4,0-0.8-0.4-0.8-0.8c0,0,0,0,0,0
                v-0.9c0-0.2,0-0.4-0.2-0.5l0,0L93,73.4c-0.2-0.2-0.3-0.4-0.4-0.6c-0.1-0.2-0.1-0.4-0.1-0.7v-1.6c0-0.4,0.4-0.8,0.8-0.8h1.4
                c0.4,0,0.8,0.4,0.8,0.8v0.9c0,0.2,0.1,0.3,0.2,0.5l0,0l10,12.3c0.2,0.2,0.3,0.4,0.4,0.6c0.1,0.2,0.1,0.4,0.1,0.7V87
                c0,0.4-0.4,0.8-0.8,0.8h0L103.9,87.9z"/>
            <path class="st1" d="M59.4,47.9c-0.5,0-0.9-0.3-1.1-0.7l-0.6-1.5c-0.1-0.2,0-0.4,0.1-0.5c0.1,0,0.1,0,0.2,0h3.5
                c0.4,0,0.8,0.4,0.8,0.8l0,0v1.2c0,0.4-0.4,0.8-0.8,0.8l0,0L59.4,47.9z M54.5,63.1c-0.4,0-0.8-0.4-0.8-0.8l0,0V48.7
                c0-0.4-0.4-0.8-0.8-0.8h-4c-0.4,0-0.8-0.4-0.8-0.8v-1.2c0-0.4,0.4-0.8,0.8-0.8c0,0,0,0,0,0h5.7c0.5,0,0.9,0.3,1.1,0.7l0.6,1.5
                c0.2,0.5,0.3,1,0.3,1.5v13.5c0,0.4-0.4,0.8-0.8,0.8c0,0,0,0,0,0H54.5z"/>
            <path class="st0" d="M15.1,87.9c-0.3,0-0.6-0.3-0.6-0.6V70.5c0-0.3,0.3-0.6,0.6-0.6h0.4c0.4,0,0.7,0.2,0.9,0.6l0.7,1.6
                c0.2,0.5,0.3,1,0.3,1.5v10.7c0,0.5-0.1,1-0.3,1.5l-0.7,1.6c-0.2,0.3-0.5,0.6-0.9,0.6L15.1,87.9z M19,87.9c-0.3,0-0.5-0.2-0.5-0.4
                c0-0.1,0-0.2,0.1-0.3l0.5-1.2c0.2-0.4,0.6-0.7,1.1-0.7h3.6c0.2,0,0.4-0.1,0.5-0.2l1.2-1.2c0.1-0.1,0.2-0.3,0.2-0.5v-8.7
                c0-0.2-0.1-0.4-0.2-0.5l0,0l-1.3-1.3l0,0c-0.1-0.1-0.3-0.2-0.5-0.2h-3.5c-0.5,0-0.9-0.3-1.1-0.7l-0.5-1.2
                c-0.1-0.2-0.1-0.5,0.2-0.7c0.1-0.1,0.2-0.1,0.3-0.1h5.6c0.5,0,0.9,0.2,1.3,0.5l2.2,2.3c0.3,0.3,0.5,0.8,0.5,1.3v9.9
                c0,0.5-0.2,0.9-0.5,1.3l-2.2,2.2c-0.3,0.3-0.8,0.5-1.3,0.5L19,87.9z"/>
            <path class="st1" d="M63.3,63.1c-0.4,0-0.8-0.4-0.8-0.8l0,0V61c0-0.4,0.1-0.8,0.2-1.1l0,0l5-11.7c0.2-0.4,0.4-0.4,0.6,0l0.9,2
                c0.2,0.5,0.2,1,0,1.5l-3.6,8.7c-0.1,0.1-0.2,0.4-0.2,0.5c0,0.1,0,0.3,0,0.4v1.2c0,0.4-0.4,0.8-0.8,0.8c0,0,0,0,0,0L63.3,63.1z"/>
            <path class="st1" d="M76.4,63.1c-0.4,0-0.8-0.4-0.8-0.8l0,0v-1.1c0-0.1,0-0.3,0-0.4c0-0.1-0.1-0.2-0.1-0.3l0,0L75,59.2
                c-0.2-0.4-0.6-0.7-1.1-0.7H69c-0.2,0-0.4-0.1-0.4-0.3c0-0.1,0-0.1,0-0.2l0.5-1.3c0.2-0.4,0.6-0.7,1.1-0.7h2.5
                c0.3,0,0.5-0.2,0.6-0.4c0-0.1,0-0.2-0.1-0.3l-3.9-9.4c-0.1-0.2-0.1-0.5,0.2-0.7c0.1-0.1,0.2-0.1,0.3-0.1h1.5
                c0.5,0,0.9,0.3,1.1,0.7l5.9,13.9l0,0c0.1,0.4,0.2,0.8,0.2,1.1v1.4c0,0.4-0.4,0.8-0.8,0.8l0,0L76.4,63.1z"/>
            <path class="st1" d="M105.5,23c0.3,0,0.6,0.3,0.6,0.6v13.6c0,0.4-0.3,0.6-0.6,0.6H105c-0.4,0-0.7-0.2-0.9-0.6l-0.7-1.5
                c-0.2-0.5-0.3-1-0.3-1.5v-7.5c0-0.5,0.1-1,0.3-1.5l0.7-1.6c0.2-0.3,0.5-0.6,0.9-0.6L105.5,23z"/>
            <path class="st1" d="M88.7,21.1c0-0.4,0.3-0.6,0.6-0.6h13.6c0.3,0,0.6,0.3,0.6,0.6v0.4c0,0.4-0.2,0.7-0.6,0.9l-1.6,0.7
                c-0.5,0.2-1,0.3-1.5,0.3h-7.5c-0.5,0-1-0.1-1.5-0.3l-1.6-0.7c-0.3-0.2-0.6-0.5-0.6-0.9L88.7,21.1z"/>
        </g>
    </g>
</g>
<g>
    <path class="st0" d="M16.4,98.2h-0.8v2.3h-1.1v-6.6h1.8c1.7,0,2.6,0.7,2.6,2.1C18.9,97.5,17.9,98.2,16.4,98.2z M16.4,94.8h-0.8v2.6
        h0.8c0.8,0,1.4-0.3,1.4-1.3C17.8,95.1,17.2,94.8,16.4,94.8z"/>
    <path class="st0" d="M20.6,98.9l-0.5,1.6H19l2.1-6.6h1.4l2.1,6.6h-1.2l-0.5-1.6H20.6z M22.7,98.1l-0.9-3.3l-0.9,3.3H22.7z"/>
    <path class="st0" d="M28.3,97.6l1.9,2.9h-1.3l-1.7-2.7h-0.7v2.7h-1.1v-6.6h1.8c1.7,0,2.6,0.6,2.6,1.9
        C29.8,96.8,29.2,97.4,28.3,97.6z M27.3,94.7h-0.8V97h0.8c0.8,0,1.3-0.3,1.3-1.2C28.7,95.1,28.2,94.7,27.3,94.7z"/>
    <path class="st0" d="M33.7,100.5h-1.1v-5.7h-2v-0.9h5.1l-0.1,0.9h-1.9V100.5z"/>
    <path class="st0" d="M42.6,100.6c-1.6,0-2.5-1.3-2.5-3.4c0-2,0.8-3.4,2.5-3.4s2.5,1.3,2.5,3.4C45.1,99.2,44.3,100.6,42.6,100.6z
         M42.6,94.7c-1,0-1.4,0.9-1.4,2.6c0,1.7,0.4,2.5,1.4,2.5c1,0,1.4-0.9,1.4-2.5C44,95.5,43.6,94.7,42.6,94.7z"/>
    <path class="st0" d="M47.6,96.9h2.5v0.8h-2.5v2.8h-1.1v-6.6h4l-0.1,0.8h-2.8V96.9z"/>
    <path class="st0" d="M56.4,93.9l1.3,2.4l1.3-2.4h1.2l-1.8,3l2,3.5h-1.2l-1.5-2.8l-1.5,2.8H55l2-3.5l-1.8-3.1H56.4z"/>
    <path class="st0" d="M62.5,96.7h2.4v0.8h-2.4v2.1h2.9v0.8h-4v-6.6h3.9l-0.1,0.8h-2.7V96.7z"/>
    <path class="st0" d="M68.5,100.5h-1.9v-6.6h1.8c1.2,0,2.4,0.4,2.4,1.7c0,0.8-0.6,1.3-1.2,1.4c0.7,0.1,1.5,0.5,1.5,1.6
        C71.1,100.1,69.8,100.5,68.5,100.5z M68.5,94.8h-0.8v1.9h0.9c0.7,0,1.1-0.3,1.1-1C69.7,95,69.2,94.8,68.5,94.8z M68.6,97.5h-0.9
        v2.2h0.9c0.6,0,1.3-0.2,1.3-1C69.9,97.7,69.4,97.5,68.6,97.5z"/>
    <path class="st0" d="M76,94.8h-1.4v4.9H76v0.8h-4v-0.8h1.4v-4.9h-1.4v-0.8h4V94.8z"/>
    <path class="st0" d="M78.6,98.9l-0.5,1.6H77l2.1-6.6h1.4l2.1,6.6h-1.2l-0.5-1.6H78.6z M80.7,98.1l-0.9-3.3l-0.9,3.3H80.7z"/>
</g>
</svg>
